<svg xmlns="http://www.w3.org/2000/svg" xmlns:xlink="http://www.w3.org/1999/xlink">
  <symbol viewBox="0 0 24 24" id="hamburger">
    <title>Hamburger</title>
    <path fill="currentColor" d="M2 6h20v3H2zm0 5h20v3H2zm0 5h20v3H2z" />
  </symbol>

  <symbol viewBox="0 0 486.4 486.4" id="facebook">
    <title>Facebook</title>
    <path fill="currentColor" d="M243.2 0C108.9 0 0 108.9 0 243.2s108.9 243.2 243.2 243.2 243.2-108.9 243.2-243.2C486.4 108.9 377.5 0 243.2 0zM306.1 243.2l-39.9 0 0 145.9h-54.7V243.2H175v-50.3l36.5 0 -0.1-29.6c0-41 11.1-66 59.4-66h40.2v50.3h-25.2c-18.8 0-19.7 7-19.7 20.1l-0.1 25.2h45.2L306.1 243.2z" />
  </symbol>

  <symbol viewBox="0 0 49.7 49.7" id="instagram">
    <title>Instagram</title>
    <path fill="currentColor" d="M24.8 29.8c2.7 0 5-2.2 5-5 0-1.1-0.4-2.1-0.9-2.9 -0.9-1.3-2.4-2.1-4-2.1 -1.7 0-3.1 0.8-4 2.1 -0.6 0.8-0.9 1.8-0.9 2.9C19.9 27.6 22.1 29.8 24.8 29.8z" />
    <polygon fill="currentColor" points="35.7 18.7 35.7 14.6 35.7 14 35.1 14 30.9 14 30.9 18.8 " />
    <path fill="currentColor" d="M24.8 0C11.1 0 0 11.1 0 24.8c0 13.7 11.1 24.8 24.8 24.8 13.7 0 24.8-11.1 24.8-24.8C49.7 11.1 38.5 0 24.8 0zM38.9 21.9v11.6c0 3-2.4 5.5-5.5 5.5H16.2c-3 0-5.5-2.4-5.5-5.5v-11.6 -5.8c0-3 2.4-5.5 5.5-5.5h17.3c3 0 5.5 2.4 5.5 5.5V21.9zM32.5 24.8c0 4.3-3.5 7.7-7.7 7.7 -4.3 0-7.7-3.5-7.7-7.7 0-1 0.2-2 0.6-2.9h-4.2v11.6c0 1.5 1.2 2.7 2.7 2.7h17.3c1.5 0 2.7-1.2 2.7-2.7v-11.6h-4.2C32.3 22.8 32.5 23.8 32.5 24.8z" />
  </symbol>

  <symbol viewBox="0 0 112.2 112.2" id="soundcloud">
    <title>Soundcloud</title>
    <circle fill="currentColor" cx="56.1" cy="56.1" r="56.1" />
    <path d="M16.7 68.8c0 0.2-0.2 0.3-0.3 0.3 -0.2 0-0.3-0.1-0.3-0.3l-0.6-4.4 0.6-4.5c0-0.2 0.2-0.3 0.3-0.3 0.2 0 0.3 0.1 0.3 0.3l0.7 4.5L16.7 68.8zM19.7 71.5c0 0.2-0.2 0.3-0.3 0.3 -0.2 0-0.3-0.1-0.3-0.3l-0.8-7.1 0.8-7.3c0-0.2 0.2-0.3 0.3-0.3 0.2 0 0.3 0.1 0.3 0.3l0.9 7.3L19.7 71.5zM23 72.7c0 0.2-0.2 0.4-0.4 0.4 -0.2 0-0.4-0.2-0.4-0.4l-0.8-8.3 0.8-8.7c0-0.2 0.2-0.4 0.4-0.4 0.2 0 0.4 0.2 0.4 0.4l0.9 8.7L23 72.7zM26.3 73c0 0.3-0.2 0.5-0.5 0.5 -0.3 0-0.5-0.2-0.5-0.5l-0.7-8.6 0.7-8.9c0-0.3 0.2-0.5 0.5-0.5 0.2 0 0.5 0.2 0.5 0.5l0.8 8.9L26.3 73zM29.6 73.1c0 0.3-0.3 0.5-0.5 0.5 -0.3 0-0.5-0.2-0.5-0.5l-0.7-8.7 0.7-8.3c0-0.3 0.3-0.5 0.5-0.5 0.3 0 0.5 0.2 0.5 0.5l0.8 8.3L29.6 73.1zM32.9 73.1v0c0 0.3-0.3 0.6-0.6 0.6 -0.3 0-0.6-0.3-0.6-0.6l-0.6-8.7 0.6-13.4c0-0.3 0.3-0.6 0.6-0.6 0.3 0 0.6 0.3 0.6 0.6l0.7 13.4L32.9 73.1zM36.2 73.1v0c0 0.4-0.3 0.7-0.7 0.7 -0.4 0-0.7-0.3-0.7-0.7l-0.6-8.6 0.6-16.5c0-0.4 0.3-0.7 0.7-0.7 0.4 0 0.7 0.3 0.7 0.7l0.7 16.5L36.2 73.1zM39.7 72.9v0c0 0.4-0.3 0.7-0.8 0.7 -0.4 0-0.7-0.3-0.8-0.7l-0.6-8.5c0 0 0.6-17.9 0.6-17.9 0-0.4 0.3-0.7 0.8-0.7 0.4 0 0.7 0.3 0.8 0.7l0.6 17.9L39.7 72.9zM43.1 72.9c0 0.5-0.4 0.8-0.8 0.8 -0.4 0-0.8-0.4-0.8-0.8l-0.5-8.5 0.5-18.5c0-0.5 0.4-0.8 0.8-0.8 0.4 0 0.8 0.4 0.8 0.8l0.6 18.5L43.1 72.9zM46.6 72.8v0c0 0.5-0.4 0.9-0.9 0.9 -0.5 0-0.9-0.4-0.9-0.9l-0.5-8.4L44.8 46.4c0-0.5 0.4-0.9 0.9-0.9 0.5 0 0.9 0.4 0.9 0.9l0.5 18L46.6 72.8zM50 72.8V72.8c0 0.5-0.4 1-1 1 -0.5 0-0.9-0.4-1-0.9l-0.4-8.4L48.1 47.1c0-0.5 0.4-1 1-1 0.5 0 1 0.4 1 1l0.5 17.4L50 72.8zM53.6 71.9l0 0.8c0 0.3-0.1 0.5-0.3 0.7 -0.2 0.2-0.4 0.3-0.7 0.3 -0.3 0-0.6-0.1-0.8-0.4 -0.1-0.2-0.2-0.4-0.2-0.6 0 0 0 0 0 0 0 0-0.4-8.3-0.4-8.3l0.4-20.4 0-0.2c0-0.4 0.2-0.7 0.5-0.9 0.2-0.1 0.3-0.2 0.6-0.2 0.2 0 0.4 0.1 0.6 0.2 0.3 0.2 0.5 0.5 0.5 0.9l0.4 20.6L53.6 71.9zM57 72.6v0c0 0.6-0.5 1.1-1.1 1.1 -0.6 0-1.1-0.5-1.1-1.1l-0.2-4 -0.2-4.1 0.5-22.4v-0.1c0-0.3 0.2-0.6 0.4-0.8 0.2-0.2 0.4-0.2 0.7-0.2 0.2 0 0.4 0.1 0.6 0.2 0.3 0.2 0.5 0.5 0.5 0.9l0.5 22.5L57 72.6zM86.7 73.7c0 0-27.7 0-27.7 0 -0.6-0.1-1.1-0.5-1.1-1.1V40.8c0-0.6 0.2-0.9 1-1.2 1.9-0.8 4.1-1.2 6.4-1.2 9.2 0 16.8 7.1 17.6 16.1 1.2-0.5 2.5-0.8 3.9-0.8 5.5 0 10 4.5 10 10C96.7 69.3 92.3 73.7 86.7 73.7L86.7 73.7z" />
  </symbol>

  <symbol viewBox="0 0 486.4 486.4" id="twitter">
    <title>Twitter</title>
    <path fill="currentColor" d="M243.2 0C108.9 0 0 108.9 0 243.2s108.9 243.2 243.2 243.2 243.2-108.9 243.2-243.2C486.4 108.9 377.5 0 243.2 0zM364.2 188.6l0.2 7.8c0 79.2-60.2 170.4-170.4 170.4 -33.8 0-65.3-9.9-91.8-26.9 4.7 0.5 9.5 0.9 14.3 0.9 28.1 0 53.9-9.6 74.4-25.6 -26.2-0.5-48.3-17.8-55.9-41.6 3.7 0.7 7.4 1 11.3 1 5.5 0 10.8-0.7 15.8-2.1 -27.4-5.5-48-29.7-48-58.7v-0.8c8.1 4.5 17.3 7.2 27.1 7.5 -16.1-10.7-26.6-29.1-26.6-49.8 0-11 2.9-21.2 8.1-30.1 29.5 36.2 73.7 60.1 123.4 62.6 -1-4.4-1.5-9-1.5-13.6 0-33 26.8-59.9 59.9-59.9 17.2 0 32.8 7.3 43.7 18.9 13.6-2.7 26.4-7.7 38-14.5 -4.5 14-14 25.7-26.3 33.1 12.1-1.4 23.7-4.7 34.4-9.4C386.1 169.7 375.9 180.2 364.2 188.6z" />
  </symbol>

  <symbol viewBox="0 0 97.8 97.8" id="youtube">
    <title>YouTube</title>
    <polygon fill="currentColor" points="25.7 52.5 29.6 52.5 29.6 73.5 33.2 73.5 33.2 52.5 37.2 52.5 37.2 49 25.7 49" />
    <path fill="currentColor" d="M56.7 55c-1.2 0-2.3 0.7-3.4 2v-8h-3.3v24.4h3.3v-1.8c1.1 1.4 2.2 2 3.4 2 1.3 0 2.2-0.7 2.6-2 0.2-0.8 0.3-2 0.3-3.7v-7.2c0-1.7-0.1-2.9-0.3-3.7C58.9 55.7 58 55 56.7 55zM56.3 68.3c0 1.6-0.5 2.5-1.4 2.5 -0.5 0-1.1-0.3-1.6-0.8V58.8c0.6-0.5 1.1-0.8 1.6-0.8 1 0 1.4 0.8 1.4 2.5V68.3zM43.8 69.2c-0.7 1-1.4 1.5-2.1 1.5 -0.4 0-0.7-0.3-0.8-0.8 0-0.1 0-0.5 0-1.3v-13.4h-3.3v14.4c0 1.3 0.1 2.2 0.3 2.7 0.3 0.9 1.1 1.4 2.1 1.4 1.2 0 2.5-0.7 3.8-2.2v2h3.3V55.3h-3.3V69.2zM46.7 38.5c1.1 0 1.6-0.9 1.6-2.6v-7.7c0-1.7-0.5-2.5-1.6-2.5 -1.1 0-1.6 0.8-1.6 2.5v7.7C45.1 37.6 45.6 38.5 46.7 38.5zM48.9 0C21.9 0 0 21.9 0 48.9S21.9 97.8 48.9 97.8 97.8 75.9 97.8 48.9 75.9 0 48.9 0zM54.3 22.9h3.3v13.5c0 0.8 0 1.2 0 1.3 0.1 0.5 0.3 0.8 0.8 0.8 0.7 0 1.4-0.5 2.1-1.6V22.9h3.3v18.4h-3.3v-2c-1.3 1.5-2.6 2.3-3.8 2.3 -1.1 0-1.8-0.4-2.1-1.4 -0.2-0.6-0.3-1.4-0.3-2.7V22.9L54.3 22.9zM41.7 28.9c0-2 0.3-3.4 1-4.3 0.9-1.3 2.2-1.9 3.9-1.9 1.7 0 3 0.6 3.9 1.9 0.7 0.9 1 2.4 1 4.3v6.4c0 2-0.3 3.4-1 4.3 -0.9 1.3-2.2 1.9-3.9 1.9 -1.7 0-3-0.6-3.9-1.9 -0.7-0.9-1-2.4-1-4.3V28.9zM32.8 16.6l2.6 9.7 2.5-9.7h3.7L37.3 31.3v10h-3.7v-10c-0.3-1.8-1.1-4.4-2.3-7.8 -0.8-2.3-1.6-4.6-2.4-6.9H32.8zM75.2 75.1c-0.7 2.9-3 5-5.9 5.4 -6.8 0.8-13.6 0.8-20.4 0.8 -6.8 0-13.7 0-20.4-0.8 -2.9-0.3-5.2-2.5-5.9-5.4 -1-4.1-1-8.6-1-12.9s0-8.8 1-12.9c0.7-2.9 3-5 5.9-5.4 6.8-0.8 13.6-0.8 20.4-0.8 6.8 0 13.7 0 20.4 0.8 2.9 0.3 5.2 2.5 5.9 5.4 0.9 4.1 0.9 8.6 0.9 12.9S76.1 70.9 75.2 75.1zM67.2 55c-1.7 0-3 0.6-3.9 1.9 -0.7 0.9-1 2.3-1 4.3v6.4c0 1.9 0.4 3.4 1.1 4.3 1 1.2 2.3 1.9 4 1.9 1.7 0 3.1-0.7 4-2 0.4-0.6 0.7-1.2 0.8-2 0-0.3 0.1-1.1 0.1-2.1v-0.5h-3.4c0 1.3 0 2.1-0.1 2.2 -0.2 0.9-0.7 1.3-1.5 1.3 -1.1 0-1.7-0.8-1.7-2.5v-3.2h6.6v-3.8c0-1.9-0.3-3.4-1-4.3C70.1 55.7 68.8 55 67.2 55zM68.8 62.2h-3.3v-1.7c0-1.7 0.6-2.5 1.7-2.5 1.1 0 1.6 0.8 1.6 2.5V62.2z" />
  </symbol>

  <symbol viewBox="0 0 487.9 487.9" id="next-track">
    <title>Next track</title>
    <path fill="currentColor" d="M23 468.2C10.3 468.2 0 457.9 0 445.2V42.9c0-12.7 10.3-23 23-23l373.5 206.9c0 0 17.2 17.2 0 34.5C379.3 278.6 23 468.2 23 468.2zM411.1 44.6c0-13.8 11.2-24.9 24.9-24.9h27c13.8 0 24.9 11.2 24.9 24.9v398.6c0 13.8-11.2 24.9-24.9 24.9h-27c-13.8 0-24.9-11.2-24.9-24.9V44.6z"/>
  </symbol>

  <symbol viewBox="0 0 535.6 535.6" id="pause">
    <title>Pause</title>
    <path fill="currentColor" d="M231.6 516.3c0 10.7-8.6 19.3-19.3 19.3H106.2c-10.7 0-19.3-8.6-19.3-19.3V19.3c0-10.7 8.6-19.3 19.3-19.3h106.2c10.7 0 19.3 8.6 19.3 19.3V516.3zM448.7 516.3c0 10.7-8.6 19.3-19.3 19.3h-106.1c-10.7 0-19.3-8.6-19.3-19.3V19.3c0-10.7 8.6-19.3 19.3-19.3h106.2c10.7 0 19.3 8.6 19.3 19.3V516.3z"/>
  </symbol>

  <symbol viewBox="0 0 415.3 415.3" id="play">
    <title>Play</title>
    <path fill="currentColor" d="M41.7 415.3c-11.8 0-21.3-9.5-21.3-21.3V21.3C20.4 9.5 29.9 0 41.7 0l346.1 191.7c0 0 16 16 0 32C371.9 239.6 41.7 415.3 41.7 415.3z"/>
  </symbol>

  <symbol viewBox="0 0 487.9 487.9" id="previous-track">
    <title>Previous track</title>
    <path fill="currentColor" d="M464.9 19.7c12.7 0 23 10.3 23 23v402.3c0 12.7-10.3 23-23 23L91.4 261.1c0 0-17.2-17.2 0-34.5C108.6 209.4 464.9 19.7 464.9 19.7zM76.8 443.3c0 13.8-11.2 24.9-24.9 24.9H24.9C11.2 468.2 0 457 0 443.3V44.6c0-13.8 11.2-24.9 24.9-24.9h27c13.8 0 24.9 11.2 24.9 24.9V443.3z"/>
  </symbol>
</svg>
