<svg xmlns="http://www.w3.org/2000/svg" viewBox="0 0 112.2 112.2" xml:space="preserve">
  <circle fill="currentColor" cx="56.1" cy="56.1" r="56.1" />
  <path d="M16.7 68.8c0 0.2-0.2 0.3-0.3 0.3 -0.2 0-0.3-0.1-0.3-0.3l-0.6-4.4 0.6-4.5c0-0.2 0.2-0.3 0.3-0.3 0.2 0 0.3 0.1 0.3 0.3l0.7 4.5L16.7 68.8zM19.7 71.5c0 0.2-0.2 0.3-0.3 0.3 -0.2 0-0.3-0.1-0.3-0.3l-0.8-7.1 0.8-7.3c0-0.2 0.2-0.3 0.3-0.3 0.2 0 0.3 0.1 0.3 0.3l0.9 7.3L19.7 71.5zM23 72.7c0 0.2-0.2 0.4-0.4 0.4 -0.2 0-0.4-0.2-0.4-0.4l-0.8-8.3 0.8-8.7c0-0.2 0.2-0.4 0.4-0.4 0.2 0 0.4 0.2 0.4 0.4l0.9 8.7L23 72.7zM26.3 73c0 0.3-0.2 0.5-0.5 0.5 -0.3 0-0.5-0.2-0.5-0.5l-0.7-8.6 0.7-8.9c0-0.3 0.2-0.5 0.5-0.5 0.2 0 0.5 0.2 0.5 0.5l0.8 8.9L26.3 73zM29.6 73.1c0 0.3-0.3 0.5-0.5 0.5 -0.3 0-0.5-0.2-0.5-0.5l-0.7-8.7 0.7-8.3c0-0.3 0.3-0.5 0.5-0.5 0.3 0 0.5 0.2 0.5 0.5l0.8 8.3L29.6 73.1zM32.9 73.1v0c0 0.3-0.3 0.6-0.6 0.6 -0.3 0-0.6-0.3-0.6-0.6l-0.6-8.7 0.6-13.4c0-0.3 0.3-0.6 0.6-0.6 0.3 0 0.6 0.3 0.6 0.6l0.7 13.4L32.9 73.1zM36.2 73.1v0c0 0.4-0.3 0.7-0.7 0.7 -0.4 0-0.7-0.3-0.7-0.7l-0.6-8.6 0.6-16.5c0-0.4 0.3-0.7 0.7-0.7 0.4 0 0.7 0.3 0.7 0.7l0.7 16.5L36.2 73.1zM39.7 72.9v0c0 0.4-0.3 0.7-0.8 0.7 -0.4 0-0.7-0.3-0.8-0.7l-0.6-8.5c0 0 0.6-17.9 0.6-17.9 0-0.4 0.3-0.7 0.8-0.7 0.4 0 0.7 0.3 0.8 0.7l0.6 17.9L39.7 72.9zM43.1 72.9c0 0.5-0.4 0.8-0.8 0.8 -0.4 0-0.8-0.4-0.8-0.8l-0.5-8.5 0.5-18.5c0-0.5 0.4-0.8 0.8-0.8 0.4 0 0.8 0.4 0.8 0.8l0.6 18.5L43.1 72.9zM46.6 72.8v0c0 0.5-0.4 0.9-0.9 0.9 -0.5 0-0.9-0.4-0.9-0.9l-0.5-8.4L44.8 46.4c0-0.5 0.4-0.9 0.9-0.9 0.5 0 0.9 0.4 0.9 0.9l0.5 18L46.6 72.8zM50 72.8V72.8c0 0.5-0.4 1-1 1 -0.5 0-0.9-0.4-1-0.9l-0.4-8.4L48.1 47.1c0-0.5 0.4-1 1-1 0.5 0 1 0.4 1 1l0.5 17.4L50 72.8zM53.6 71.9l0 0.8c0 0.3-0.1 0.5-0.3 0.7 -0.2 0.2-0.4 0.3-0.7 0.3 -0.3 0-0.6-0.1-0.8-0.4 -0.1-0.2-0.2-0.4-0.2-0.6 0 0 0 0 0 0 0 0-0.4-8.3-0.4-8.3l0.4-20.4 0-0.2c0-0.4 0.2-0.7 0.5-0.9 0.2-0.1 0.3-0.2 0.6-0.2 0.2 0 0.4 0.1 0.6 0.2 0.3 0.2 0.5 0.5 0.5 0.9l0.4 20.6L53.6 71.9zM57 72.6v0c0 0.6-0.5 1.1-1.1 1.1 -0.6 0-1.1-0.5-1.1-1.1l-0.2-4 -0.2-4.1 0.5-22.4v-0.1c0-0.3 0.2-0.6 0.4-0.8 0.2-0.2 0.4-0.2 0.7-0.2 0.2 0 0.4 0.1 0.6 0.2 0.3 0.2 0.5 0.5 0.5 0.9l0.5 22.5L57 72.6zM86.7 73.7c0 0-27.7 0-27.7 0 -0.6-0.1-1.1-0.5-1.1-1.1V40.8c0-0.6 0.2-0.9 1-1.2 1.9-0.8 4.1-1.2 6.4-1.2 9.2 0 16.8 7.1 17.6 16.1 1.2-0.5 2.5-0.8 3.9-0.8 5.5 0 10 4.5 10 10C96.7 69.3 92.3 73.7 86.7 73.7L86.7 73.7z" />
</svg>
