<svg xmlns="http://www.w3.org/2000/svg" version="1.1" x="0" y="0" viewBox="0 0 97.8 97.8" xml:space="preserve">
  <polygon fill="#fff" points="25.7 52.5 29.6 52.5 29.6 73.5 33.2 73.5 33.2 52.5 37.2 52.5 37.2 49 25.7 49" />
  <path fill="#fff" d="M56.7 55c-1.2 0-2.3 0.7-3.4 2v-8h-3.3v24.4h3.3v-1.8c1.1 1.4 2.2 2 3.4 2 1.3 0 2.2-0.7 2.6-2 0.2-0.8 0.3-2 0.3-3.7v-7.2c0-1.7-0.1-2.9-0.3-3.7C58.9 55.7 58 55 56.7 55zM56.3 68.3c0 1.6-0.5 2.5-1.4 2.5 -0.5 0-1.1-0.3-1.6-0.8V58.8c0.6-0.5 1.1-0.8 1.6-0.8 1 0 1.4 0.8 1.4 2.5V68.3zM43.8 69.2c-0.7 1-1.4 1.5-2.1 1.5 -0.4 0-0.7-0.3-0.8-0.8 0-0.1 0-0.5 0-1.3v-13.4h-3.3v14.4c0 1.3 0.1 2.2 0.3 2.7 0.3 0.9 1.1 1.4 2.1 1.4 1.2 0 2.5-0.7 3.8-2.2v2h3.3V55.3h-3.3V69.2zM46.7 38.5c1.1 0 1.6-0.9 1.6-2.6v-7.7c0-1.7-0.5-2.5-1.6-2.5 -1.1 0-1.6 0.8-1.6 2.5v7.7C45.1 37.6 45.6 38.5 46.7 38.5zM48.9 0C21.9 0 0 21.9 0 48.9S21.9 97.8 48.9 97.8 97.8 75.9 97.8 48.9 75.9 0 48.9 0zM54.3 22.9h3.3v13.5c0 0.8 0 1.2 0 1.3 0.1 0.5 0.3 0.8 0.8 0.8 0.7 0 1.4-0.5 2.1-1.6V22.9h3.3v18.4h-3.3v-2c-1.3 1.5-2.6 2.3-3.8 2.3 -1.1 0-1.8-0.4-2.1-1.4 -0.2-0.6-0.3-1.4-0.3-2.7V22.9L54.3 22.9zM41.7 28.9c0-2 0.3-3.4 1-4.3 0.9-1.3 2.2-1.9 3.9-1.9 1.7 0 3 0.6 3.9 1.9 0.7 0.9 1 2.4 1 4.3v6.4c0 2-0.3 3.4-1 4.3 -0.9 1.3-2.2 1.9-3.9 1.9 -1.7 0-3-0.6-3.9-1.9 -0.7-0.9-1-2.4-1-4.3V28.9zM32.8 16.6l2.6 9.7 2.5-9.7h3.7L37.3 31.3v10h-3.7v-10c-0.3-1.8-1.1-4.4-2.3-7.8 -0.8-2.3-1.6-4.6-2.4-6.9H32.8zM75.2 75.1c-0.7 2.9-3 5-5.9 5.4 -6.8 0.8-13.6 0.8-20.4 0.8 -6.8 0-13.7 0-20.4-0.8 -2.9-0.3-5.2-2.5-5.9-5.4 -1-4.1-1-8.6-1-12.9s0-8.8 1-12.9c0.7-2.9 3-5 5.9-5.4 6.8-0.8 13.6-0.8 20.4-0.8 6.8 0 13.7 0 20.4 0.8 2.9 0.3 5.2 2.5 5.9 5.4 0.9 4.1 0.9 8.6 0.9 12.9S76.1 70.9 75.2 75.1zM67.2 55c-1.7 0-3 0.6-3.9 1.9 -0.7 0.9-1 2.3-1 4.3v6.4c0 1.9 0.4 3.4 1.1 4.3 1 1.2 2.3 1.9 4 1.9 1.7 0 3.1-0.7 4-2 0.4-0.6 0.7-1.2 0.8-2 0-0.3 0.1-1.1 0.1-2.1v-0.5h-3.4c0 1.3 0 2.1-0.1 2.2 -0.2 0.9-0.7 1.3-1.5 1.3 -1.1 0-1.7-0.8-1.7-2.5v-3.2h6.6v-3.8c0-1.9-0.3-3.4-1-4.3C70.1 55.7 68.8 55 67.2 55zM68.8 62.2h-3.3v-1.7c0-1.7 0.6-2.5 1.7-2.5 1.1 0 1.6 0.8 1.6 2.5V62.2z" />
</svg>
